<svg width="191" height="26" viewBox="0 0 191 26" fill="none" xmlns="http://www.w3.org/2000/svg">
<line x1="2" y1="5" x2="2" y2="21" stroke="url(#paint0_linear_38_68)" stroke-width="4" stroke-linecap="round"/>
<line x1="12" y1="7" x2="12" y2="19" stroke="url(#paint1_linear_38_68)" stroke-width="4" stroke-linecap="round"/>
<line x1="22" y1="9" x2="22" y2="17" stroke="url(#paint2_linear_38_68)" stroke-width="4" stroke-linecap="round"/>
<path d="M37.1221 6.29395L31.708 21H30.333L36.2412 5.35938H37.1973L37.1221 6.29395ZM42.042 21L36.6172 6.29395L36.542 5.35938H37.498L43.417 21H42.042ZM41.0752 15.4785V16.6172H32.7715V15.4785H41.0752ZM45.5332 9.37695H46.8223V22.3857C46.8223 23.0947 46.7041 23.6963 46.4678 24.1904C46.2314 24.6846 45.8877 25.057 45.4365 25.3076C44.9854 25.5654 44.4303 25.6943 43.7715 25.6943C43.5924 25.6943 43.3991 25.6764 43.1914 25.6406C42.9837 25.6048 42.7939 25.5547 42.6221 25.4902L42.6436 24.416C42.7725 24.4518 42.9264 24.484 43.1055 24.5127C43.2773 24.5485 43.4456 24.5664 43.6104 24.5664C44.0257 24.5664 44.3766 24.484 44.6631 24.3193C44.9495 24.1618 45.1644 23.9219 45.3076 23.5996C45.458 23.2773 45.5332 22.8727 45.5332 22.3857V9.37695ZM45.3076 6.01465C45.3076 5.77116 45.3864 5.56706 45.5439 5.40234C45.7015 5.23047 45.9163 5.14453 46.1885 5.14453C46.4606 5.14453 46.6755 5.23047 46.833 5.40234C46.9977 5.56706 47.0801 5.77116 47.0801 6.01465C47.0801 6.25098 46.9977 6.45508 46.833 6.62695C46.6755 6.79167 46.4606 6.87402 46.1885 6.87402C45.9163 6.87402 45.7015 6.79167 45.5439 6.62695C45.3864 6.45508 45.3076 6.25098 45.3076 6.01465ZM57.5322 18.916V12.9219C57.5322 12.3704 57.4176 11.8942 57.1885 11.4932C56.9593 11.0921 56.6227 10.7842 56.1787 10.5693C55.7347 10.3545 55.1868 10.2471 54.5352 10.2471C53.9336 10.2471 53.3965 10.3545 52.9238 10.5693C52.4583 10.777 52.0895 11.0599 51.8174 11.418C51.5524 11.7689 51.4199 12.1592 51.4199 12.5889L50.1309 12.5781C50.1309 12.1413 50.2383 11.7188 50.4531 11.3105C50.668 10.9023 50.9723 10.5371 51.3662 10.2148C51.7601 9.89258 52.2292 9.63835 52.7734 9.45215C53.3249 9.25879 53.93 9.16211 54.5889 9.16211C55.4196 9.16211 56.1501 9.30176 56.7803 9.58105C57.4176 9.86035 57.9154 10.2793 58.2734 10.8379C58.6315 11.3965 58.8105 12.0983 58.8105 12.9434V18.5615C58.8105 18.9626 58.8392 19.3779 58.8965 19.8076C58.9609 20.2373 59.0505 20.5918 59.165 20.8711V21H57.8008C57.7148 20.7422 57.6468 20.4199 57.5967 20.0332C57.5537 19.6393 57.5322 19.2669 57.5322 18.916ZM57.833 14.2324L57.8545 15.2207H55.3301C54.6712 15.2207 54.0804 15.2816 53.5576 15.4033C53.042 15.5179 52.6051 15.6898 52.2471 15.9189C51.889 16.141 51.6133 16.4095 51.4199 16.7246C51.2337 17.0397 51.1406 17.3978 51.1406 17.7988C51.1406 18.2142 51.2445 18.5938 51.4521 18.9375C51.667 19.2812 51.9678 19.557 52.3545 19.7646C52.7484 19.9652 53.2139 20.0654 53.751 20.0654C54.4671 20.0654 55.0973 19.9329 55.6416 19.668C56.193 19.403 56.6478 19.0557 57.0059 18.626C57.3639 18.1963 57.6038 17.7272 57.7256 17.2188L58.2842 17.96C58.1911 18.318 58.0192 18.6868 57.7686 19.0664C57.5251 19.4388 57.2064 19.7897 56.8125 20.1191C56.4186 20.4414 55.9531 20.7064 55.416 20.9141C54.8861 21.1146 54.2845 21.2148 53.6113 21.2148C52.8522 21.2148 52.1898 21.0716 51.624 20.7852C51.0654 20.4987 50.6286 20.1084 50.3135 19.6143C50.0055 19.113 49.8516 18.5472 49.8516 17.917C49.8516 17.3441 49.9733 16.832 50.2168 16.3809C50.4603 15.9225 50.8112 15.5358 51.2695 15.2207C51.735 14.8984 52.2936 14.6549 52.9453 14.4902C53.6042 14.3184 54.3418 14.2324 55.1582 14.2324H57.833ZM63.5371 11.8584V21H62.2588V9.37695H63.4834L63.5371 11.8584ZM63.2471 14.4688L62.6777 14.1465C62.7207 13.459 62.8604 12.8145 63.0967 12.2129C63.333 11.6113 63.6517 11.0814 64.0527 10.623C64.4609 10.1647 64.9372 9.80664 65.4814 9.54883C66.0329 9.29102 66.6416 9.16211 67.3076 9.16211C67.8877 9.16211 68.4069 9.24089 68.8652 9.39844C69.3236 9.55599 69.7139 9.80664 70.0361 10.1504C70.3584 10.4941 70.6019 10.9346 70.7666 11.4717C70.9385 12.0088 71.0244 12.6641 71.0244 13.4375V21H69.7354V13.4268C69.7354 12.6247 69.6243 11.998 69.4023 11.5469C69.1803 11.0885 68.8652 10.7627 68.457 10.5693C68.0488 10.376 67.5654 10.2793 67.0068 10.2793C66.391 10.2793 65.8503 10.4154 65.3848 10.6875C64.9264 10.9525 64.5397 11.2998 64.2246 11.7295C63.9167 12.152 63.6803 12.6068 63.5156 13.0938C63.3509 13.5736 63.2614 14.0319 63.2471 14.4688ZM78.748 9.37695V10.4297H72.9258V9.37695H78.748ZM75.0635 6.39062H76.3418V18.1748C76.3418 18.7119 76.4134 19.1165 76.5566 19.3887C76.6999 19.6608 76.8861 19.8434 77.1152 19.9365C77.3444 20.0296 77.5915 20.0762 77.8564 20.0762C78.0498 20.0762 78.236 20.0654 78.415 20.0439C78.5941 20.0153 78.7552 19.9867 78.8984 19.958L78.9521 21.043C78.7946 21.0931 78.5905 21.1325 78.3398 21.1611C78.0892 21.1969 77.8385 21.2148 77.5879 21.2148C77.0938 21.2148 76.6569 21.1253 76.2773 20.9463C75.8978 20.7601 75.6006 20.445 75.3857 20.001C75.1709 19.5498 75.0635 18.9375 75.0635 18.1641V6.39062ZM82.7227 4.5V21H81.4443V4.5H82.7227ZM82.4326 14.4688L81.8633 14.1465C81.9062 13.459 82.0459 12.8145 82.2822 12.2129C82.5186 11.6113 82.8372 11.0814 83.2383 10.623C83.6465 10.1647 84.1227 9.80664 84.667 9.54883C85.2184 9.29102 85.8271 9.16211 86.4932 9.16211C87.0732 9.16211 87.5924 9.24089 88.0508 9.39844C88.5091 9.55599 88.8994 9.80664 89.2217 10.1504C89.5439 10.4941 89.7874 10.9346 89.9521 11.4717C90.124 12.0088 90.21 12.6641 90.21 13.4375V21H88.9209V13.4268C88.9209 12.6247 88.8099 11.998 88.5879 11.5469C88.3659 11.0885 88.0508 10.7627 87.6426 10.5693C87.2344 10.376 86.751 10.2793 86.1924 10.2793C85.5765 10.2793 85.0358 10.4154 84.5703 10.6875C84.112 10.9525 83.7253 11.2998 83.4102 11.7295C83.1022 12.152 82.8659 12.6068 82.7012 13.0938C82.5365 13.5736 82.4469 14.0319 82.4326 14.4688ZM100.587 18.916V12.9219C100.587 12.3704 100.472 11.8942 100.243 11.4932C100.014 11.0921 99.6774 10.7842 99.2334 10.5693C98.7894 10.3545 98.2415 10.2471 97.5898 10.2471C96.9883 10.2471 96.4512 10.3545 95.9785 10.5693C95.513 10.777 95.1442 11.0599 94.8721 11.418C94.6071 11.7689 94.4746 12.1592 94.4746 12.5889L93.1855 12.5781C93.1855 12.1413 93.293 11.7188 93.5078 11.3105C93.7227 10.9023 94.027 10.5371 94.4209 10.2148C94.8148 9.89258 95.2839 9.63835 95.8281 9.45215C96.3796 9.25879 96.9847 9.16211 97.6436 9.16211C98.4743 9.16211 99.2048 9.30176 99.835 9.58105C100.472 9.86035 100.97 10.2793 101.328 10.8379C101.686 11.3965 101.865 12.0983 101.865 12.9434V18.5615C101.865 18.9626 101.894 19.3779 101.951 19.8076C102.016 20.2373 102.105 20.5918 102.22 20.8711V21H100.855C100.77 20.7422 100.701 20.4199 100.651 20.0332C100.608 19.6393 100.587 19.2669 100.587 18.916ZM100.888 14.2324L100.909 15.2207H98.3848C97.7259 15.2207 97.1351 15.2816 96.6123 15.4033C96.0967 15.5179 95.6598 15.6898 95.3018 15.9189C94.9437 16.141 94.668 16.4095 94.4746 16.7246C94.2884 17.0397 94.1953 17.3978 94.1953 17.7988C94.1953 18.2142 94.2992 18.5938 94.5068 18.9375C94.7217 19.2812 95.0225 19.557 95.4092 19.7646C95.8031 19.9652 96.2686 20.0654 96.8057 20.0654C97.5218 20.0654 98.152 19.9329 98.6963 19.668C99.2477 19.403 99.7025 19.0557 100.061 18.626C100.419 18.1963 100.659 17.7272 100.78 17.2188L101.339 17.96C101.246 18.318 101.074 18.6868 100.823 19.0664C100.58 19.4388 100.261 19.7897 99.8672 20.1191C99.4733 20.4414 99.0078 20.7064 98.4707 20.9141C97.9408 21.1146 97.3392 21.2148 96.666 21.2148C95.9069 21.2148 95.2445 21.0716 94.6787 20.7852C94.1201 20.4987 93.6833 20.1084 93.3682 19.6143C93.0602 19.113 92.9062 18.5472 92.9062 17.917C92.9062 17.3441 93.028 16.832 93.2715 16.3809C93.515 15.9225 93.8659 15.5358 94.3242 15.2207C94.7897 14.8984 95.3483 14.6549 96 14.4902C96.6589 14.3184 97.3965 14.2324 98.2129 14.2324H100.888ZM114.272 15.8545H117.227C117.148 16.9001 116.858 17.8275 116.356 18.6367C115.855 19.4388 115.157 20.069 114.262 20.5273C113.367 20.9857 112.282 21.2148 111.007 21.2148C110.026 21.2148 109.141 21.043 108.354 20.6992C107.573 20.3483 106.903 19.8506 106.345 19.2061C105.793 18.5544 105.371 17.7738 105.077 16.8643C104.784 15.9476 104.637 14.9199 104.637 13.7812V12.5889C104.637 11.4502 104.787 10.4225 105.088 9.50586C105.389 8.58919 105.818 7.80859 106.377 7.16406C106.943 6.51237 107.619 6.01107 108.407 5.66016C109.202 5.30924 110.09 5.13379 111.071 5.13379C112.346 5.13379 113.424 5.37012 114.305 5.84277C115.186 6.30827 115.869 6.94922 116.356 7.76562C116.843 8.58203 117.137 9.52018 117.237 10.5801H114.283C114.226 9.92122 114.083 9.36263 113.854 8.9043C113.632 8.44596 113.295 8.09863 112.844 7.8623C112.4 7.61882 111.809 7.49707 111.071 7.49707C110.498 7.49707 109.993 7.60449 109.557 7.81934C109.127 8.03418 108.769 8.35645 108.482 8.78613C108.196 9.20866 107.981 9.73861 107.838 10.376C107.695 11.0062 107.623 11.7367 107.623 12.5674V13.7812C107.623 14.5762 107.688 15.2887 107.816 15.9189C107.945 16.5492 108.146 17.0827 108.418 17.5195C108.69 17.9564 109.041 18.2894 109.471 18.5186C109.9 18.7477 110.412 18.8623 111.007 18.8623C111.73 18.8623 112.317 18.7477 112.769 18.5186C113.227 18.2894 113.574 17.9528 113.811 17.5088C114.054 17.0648 114.208 16.5133 114.272 15.8545ZM122.308 9.37695V21H119.461V9.37695H122.308ZM119.268 6.33691C119.268 5.91439 119.411 5.56348 119.697 5.28418C119.991 5.00488 120.385 4.86523 120.879 4.86523C121.373 4.86523 121.763 5.00488 122.05 5.28418C122.343 5.56348 122.49 5.91439 122.49 6.33691C122.49 6.75228 122.343 7.09961 122.05 7.37891C121.763 7.6582 121.373 7.79785 120.879 7.79785C120.385 7.79785 119.991 7.6582 119.697 7.37891C119.411 7.09961 119.268 6.75228 119.268 6.33691ZM127.797 11.8584V21H124.961V9.37695H127.625L127.797 11.8584ZM127.346 14.7695H126.508C126.515 13.9245 126.63 13.1582 126.852 12.4707C127.074 11.7832 127.385 11.1924 127.786 10.6982C128.194 10.2041 128.678 9.82454 129.236 9.55957C129.795 9.2946 130.418 9.16211 131.105 9.16211C131.664 9.16211 132.169 9.24089 132.62 9.39844C133.071 9.55599 133.458 9.80664 133.78 10.1504C134.11 10.4941 134.36 10.9453 134.532 11.5039C134.711 12.0553 134.801 12.7357 134.801 13.5449V21H131.943V13.5234C131.943 12.9935 131.865 12.5745 131.707 12.2666C131.557 11.9587 131.335 11.7402 131.041 11.6113C130.755 11.4824 130.4 11.418 129.978 11.418C129.541 11.418 129.158 11.5075 128.828 11.6865C128.506 11.8584 128.234 12.0983 128.012 12.4062C127.797 12.7142 127.632 13.0687 127.518 13.4697C127.403 13.8708 127.346 14.304 127.346 14.7695ZM142.524 21.2148C141.644 21.2148 140.852 21.0716 140.15 20.7852C139.449 20.4987 138.851 20.1012 138.356 19.5928C137.869 19.0771 137.493 18.4792 137.229 17.7988C136.971 17.1113 136.842 16.3737 136.842 15.5859V15.1562C136.842 14.2611 136.971 13.4482 137.229 12.7178C137.486 11.9801 137.852 11.3464 138.324 10.8164C138.797 10.2865 139.363 9.87826 140.021 9.5918C140.68 9.30534 141.407 9.16211 142.202 9.16211C143.026 9.16211 143.753 9.30176 144.383 9.58105C145.013 9.85319 145.539 10.2399 145.962 10.7412C146.384 11.2425 146.703 11.8441 146.918 12.5459C147.133 13.2406 147.24 14.0104 147.24 14.8555V16.0479H138.131V14.0928H144.447V13.8779C144.433 13.4268 144.347 13.015 144.189 12.6426C144.032 12.263 143.788 11.9622 143.459 11.7402C143.13 11.5111 142.703 11.3965 142.181 11.3965C141.758 11.3965 141.389 11.4896 141.074 11.6758C140.766 11.8548 140.508 12.1126 140.301 12.4492C140.1 12.7786 139.95 13.1725 139.85 13.6309C139.749 14.0892 139.699 14.5977 139.699 15.1562V15.5859C139.699 16.0729 139.764 16.5241 139.893 16.9395C140.029 17.3548 140.226 17.7165 140.483 18.0244C140.748 18.3252 141.063 18.5615 141.429 18.7334C141.801 18.8981 142.224 18.9805 142.696 18.9805C143.291 18.9805 143.828 18.8659 144.308 18.6367C144.795 18.4004 145.217 18.0531 145.575 17.5947L147.004 19.0771C146.76 19.4352 146.431 19.779 146.016 20.1084C145.607 20.4378 145.113 20.7064 144.533 20.9141C143.953 21.1146 143.284 21.2148 142.524 21.2148ZM151.967 11.7617V21H149.131V9.37695H151.806L151.967 11.7617ZM151.548 14.7695H150.678C150.678 13.9603 150.774 13.2155 150.968 12.5352C151.168 11.8548 151.462 11.264 151.849 10.7627C152.235 10.2542 152.712 9.86035 153.277 9.58105C153.85 9.30176 154.513 9.16211 155.265 9.16211C155.787 9.16211 156.267 9.24089 156.704 9.39844C157.141 9.54883 157.517 9.78874 157.832 10.1182C158.154 10.4404 158.401 10.863 158.573 11.3857C158.745 11.9014 158.831 12.5208 158.831 13.2441V21H155.995V13.5342C155.995 12.9899 155.916 12.5638 155.759 12.2559C155.608 11.9479 155.39 11.7331 155.104 11.6113C154.817 11.4824 154.473 11.418 154.072 11.418C153.628 11.418 153.245 11.5075 152.923 11.6865C152.608 11.8584 152.346 12.0983 152.139 12.4062C151.938 12.7142 151.788 13.0687 151.688 13.4697C151.594 13.8708 151.548 14.304 151.548 14.7695ZM158.616 14.2432L157.445 14.458C157.452 13.7275 157.553 13.0436 157.746 12.4062C157.939 11.7617 158.222 11.1995 158.595 10.7197C158.974 10.2327 159.443 9.85319 160.002 9.58105C160.568 9.30176 161.219 9.16211 161.957 9.16211C162.53 9.16211 163.046 9.24447 163.504 9.40918C163.969 9.56673 164.367 9.82096 164.696 10.1719C165.026 10.5156 165.276 10.9632 165.448 11.5146C165.627 12.0661 165.717 12.7393 165.717 13.5342V21H162.859V13.5234C162.859 12.9577 162.781 12.5244 162.623 12.2236C162.473 11.9229 162.254 11.7152 161.968 11.6006C161.681 11.4788 161.345 11.418 160.958 11.418C160.564 11.418 160.22 11.4932 159.927 11.6436C159.64 11.7868 159.397 11.9873 159.196 12.2451C159.003 12.5029 158.856 12.8037 158.756 13.1475C158.663 13.484 158.616 13.8493 158.616 14.2432ZM174.665 18.5293V13.1689C174.665 12.7751 174.597 12.4349 174.461 12.1484C174.325 11.862 174.117 11.64 173.838 11.4824C173.559 11.3249 173.204 11.2461 172.774 11.2461C172.395 11.2461 172.062 11.3105 171.775 11.4395C171.496 11.5684 171.281 11.751 171.131 11.9873C170.98 12.2165 170.905 12.4814 170.905 12.7822H168.059C168.059 12.3024 168.173 11.8477 168.402 11.418C168.632 10.9811 168.957 10.5944 169.38 10.2578C169.81 9.91406 170.322 9.64551 170.916 9.45215C171.518 9.25879 172.191 9.16211 172.936 9.16211C173.816 9.16211 174.601 9.3125 175.288 9.61328C175.983 9.9069 176.527 10.3509 176.921 10.9453C177.322 11.5397 177.522 12.2881 177.522 13.1904V18.2607C177.522 18.8408 177.558 19.3385 177.63 19.7539C177.709 20.1621 177.823 20.5166 177.974 20.8174V21H175.084C174.948 20.7064 174.844 20.334 174.772 19.8828C174.701 19.4245 174.665 18.9733 174.665 18.5293ZM175.062 13.9209L175.084 15.6074H173.29C172.846 15.6074 172.456 15.654 172.119 15.7471C171.783 15.833 171.507 15.9619 171.292 16.1338C171.077 16.2985 170.916 16.499 170.809 16.7354C170.701 16.9645 170.647 17.2259 170.647 17.5195C170.647 17.806 170.712 18.0638 170.841 18.293C170.977 18.5221 171.17 18.7048 171.421 18.8408C171.679 18.9697 171.979 19.0342 172.323 19.0342C172.825 19.0342 173.261 18.9339 173.634 18.7334C174.006 18.5257 174.296 18.2751 174.504 17.9814C174.712 17.6878 174.823 17.4085 174.837 17.1436L175.653 18.3682C175.553 18.6618 175.403 18.9733 175.202 19.3027C175.002 19.6322 174.744 19.9401 174.429 20.2266C174.114 20.513 173.734 20.7493 173.29 20.9355C172.846 21.1217 172.33 21.2148 171.743 21.2148C170.991 21.2148 170.318 21.0645 169.724 20.7637C169.129 20.4629 168.66 20.0511 168.316 19.5283C167.973 19.0055 167.801 18.4111 167.801 17.7451C167.801 17.1292 167.915 16.585 168.145 16.1123C168.374 15.6396 168.714 15.2422 169.165 14.9199C169.616 14.5905 170.175 14.3434 170.841 14.1787C171.514 14.0068 172.284 13.9209 173.15 13.9209H175.062ZM186.471 17.8203C186.471 17.5768 186.406 17.3584 186.277 17.165C186.148 16.9717 185.905 16.7962 185.547 16.6387C185.196 16.474 184.68 16.32 184 16.1768C183.398 16.0479 182.843 15.8867 182.335 15.6934C181.826 15.5 181.39 15.2673 181.024 14.9951C180.659 14.7158 180.373 14.39 180.165 14.0176C179.965 13.638 179.864 13.2012 179.864 12.707C179.864 12.2272 179.968 11.776 180.176 11.3535C180.383 10.9238 180.684 10.5479 181.078 10.2256C181.472 9.89616 181.952 9.63835 182.518 9.45215C183.083 9.25879 183.721 9.16211 184.43 9.16211C185.418 9.16211 186.267 9.32324 186.976 9.64551C187.692 9.96777 188.24 10.4118 188.619 10.9775C188.999 11.5361 189.188 12.1663 189.188 12.8682H186.353C186.353 12.5602 186.281 12.2809 186.138 12.0303C186.002 11.7796 185.79 11.5791 185.504 11.4287C185.217 11.2712 184.856 11.1924 184.419 11.1924C184.025 11.1924 183.692 11.2568 183.42 11.3857C183.155 11.5146 182.954 11.6829 182.818 11.8906C182.682 12.0983 182.614 12.3275 182.614 12.5781C182.614 12.7643 182.65 12.9326 182.722 13.083C182.8 13.2262 182.926 13.3587 183.098 13.4805C183.27 13.6022 183.502 13.7132 183.796 13.8135C184.097 13.9137 184.465 14.0104 184.902 14.1035C185.769 14.2754 186.524 14.5046 187.169 14.791C187.821 15.0703 188.329 15.4427 188.694 15.9082C189.06 16.3737 189.242 16.9681 189.242 17.6914C189.242 18.207 189.131 18.6797 188.909 19.1094C188.687 19.5319 188.365 19.9007 187.942 20.2158C187.52 20.5309 187.015 20.778 186.428 20.957C185.84 21.1289 185.178 21.2148 184.44 21.2148C183.373 21.2148 182.471 21.0251 181.733 20.6455C180.996 20.2588 180.437 19.7718 180.058 19.1846C179.678 18.5902 179.488 17.9743 179.488 17.3369H182.206C182.228 17.7881 182.349 18.1497 182.571 18.4219C182.793 18.694 183.073 18.891 183.409 19.0127C183.753 19.1273 184.115 19.1846 184.494 19.1846C184.924 19.1846 185.285 19.1273 185.579 19.0127C185.873 18.891 186.095 18.7298 186.245 18.5293C186.396 18.3216 186.471 18.0853 186.471 17.8203Z" fill="white"/>
<defs>
<linearGradient id="paint0_linear_38_68" x1="-0.5" y1="3" x2="-0.5" y2="23" gradientUnits="userSpaceOnUse">
<stop stop-color="#EC008C"/>
<stop offset="1" stop-color="#FC6767"/>
</linearGradient>
<linearGradient id="paint1_linear_38_68" x1="9.5" y1="5" x2="9.5" y2="21" gradientUnits="userSpaceOnUse">
<stop stop-color="#E65C00"/>
<stop offset="1" stop-color="#F9D423"/>
</linearGradient>
<linearGradient id="paint2_linear_38_68" x1="19.5" y1="7" x2="19.5" y2="19" gradientUnits="userSpaceOnUse">
<stop stop-color="#00D2FF"/>
<stop offset="1" stop-color="#3A7BD5"/>
</linearGradient>
</defs>
</svg>
